<svg xmlns="http://www.w3.org/2000/svg" width="26" height="26" id="operation"><g transform="translate(0 -1026.362)"><circle cx="37.045" cy="28.409" r="12.5" fill="#50b748" fill-rule="evenodd" transform="matrix(1.04 0 0 1.04 -25.527 1009.817)"></circle><path style="line-height:normal;text-indent:0;text-align:start;text-decoration-line:none;text-decoration-style:solid;text-decoration-color:#000;text-transform:none;block-progression:tb;isolation:auto;mix-blend-mode:normal" fill="#fff" d="M3 0v16h11V0H3Zm1 1h9v14H4V1Zm1 1v4h7V2H5Zm1 1h5v2H6V3ZM5 7v3h3V7H5Zm4 0v3h3V7H9ZM6 8h1v1H6V8Zm4 0h1v1h-1V8zm-5 3v3h3v-3H5zm4 0v3h3v-3H9zm-3 1h1v1H6v-1zm4 0h1v1h-1v-1z" color="#000" font-family="sans-serif" font-weight="400" overflow="visible" transform="translate(4.5 1031.362)"></path></g></svg>